<svg width="38" height="38" viewBox="0 0 38 38" fill="none" xmlns="http://www.w3.org/2000/svg">
<path d="M0 19C0 22.7578 1.11433 26.4313 3.20208 29.5558C5.28982 32.6804 8.25722 35.1156 11.729 36.5537C15.2008 37.9918 19.0211 38.368 22.7067 37.6349C26.3923 36.9018 29.7778 35.0922 32.435 32.435C35.0922 29.7778 36.9018 26.3923 37.6349 22.7067C38.368 19.0211 37.9918 15.2008 36.5537 11.729C35.1156 8.25722 32.6804 5.28982 29.5558 3.20208C26.4313 1.11433 22.7578 0 19 0C13.9609 0 9.12816 2.00178 5.56497 5.56497C2.00178 9.12816 0 13.9609 0 19ZM31.4179 29.5179L8.48214 6.58214C11.6044 3.98321 15.5853 2.64504 19.6435 2.83027C23.7017 3.0155 27.5441 4.71075 30.4167 7.58331C33.2892 10.4559 34.9845 14.2983 35.1697 18.3565C35.355 22.4147 34.0168 26.3956 31.4179 29.5179ZM8.46857 31.4314C5.18201 28.6405 3.13636 24.6601 2.78019 20.3631C2.42401 16.0661 3.78639 11.8033 6.56857 8.50928L29.4907 31.4314C26.5514 33.915 22.8277 35.2776 18.9796 35.2776C15.1316 35.2776 11.4078 33.915 8.46857 31.4314Z" fill="black"/>
</svg>
